<mxfile host="app.diagrams.net" modified="2023-09-11T06:24:15.217Z" agent="Mozilla/5.0 (X11; Ubuntu; Linux x86_64; rv:108.0) Gecko/20100101 Firefox/108.0" etag="up0nStnSWmgP6sh60FWq" version="21.7.4" type="github">
  <diagram name="Page-1" id="8slWrnxxxH_dBT6mWyqm">
    <mxGraphModel dx="1058" dy="615" grid="1" gridSize="10" guides="1" tooltips="1" connect="1" arrows="1" fold="1" page="1" pageScale="1" pageWidth="850" pageHeight="1100" math="0" shadow="0">
      <root>
        <mxCell id="0" />
        <mxCell id="1" parent="0" />
        <mxCell id="4f4kss6W1X4vwT7f5vAt-7" style="edgeStyle=orthogonalEdgeStyle;rounded=0;orthogonalLoop=1;jettySize=auto;html=1;exitX=0.5;exitY=1;exitDx=0;exitDy=0;" parent="1" edge="1">
          <mxGeometry relative="1" as="geometry">
            <mxPoint x="480" y="590" as="sourcePoint" />
            <mxPoint x="480" y="590" as="targetPoint" />
          </mxGeometry>
        </mxCell>
        <mxCell id="4f4kss6W1X4vwT7f5vAt-11" value="komputer" style="shape=umlActor;verticalLabelPosition=bottom;verticalAlign=top;html=1;outlineConnect=0;" parent="1" vertex="1">
          <mxGeometry x="70" y="270" width="60" height="150" as="geometry" />
        </mxCell>
        <mxCell id="4f4kss6W1X4vwT7f5vAt-22" value="&lt;div&gt;user&lt;/div&gt;&lt;div&gt;&lt;br&gt;&lt;/div&gt;" style="shape=umlActor;verticalLabelPosition=bottom;verticalAlign=top;html=1;outlineConnect=0;" parent="1" vertex="1">
          <mxGeometry x="740" y="270" width="70" height="160" as="geometry" />
        </mxCell>
        <mxCell id="4f4kss6W1X4vwT7f5vAt-10" value="" style="whiteSpace=wrap;html=1;aspect=fixed;" parent="1" vertex="1">
          <mxGeometry x="180" y="50" width="540" height="540" as="geometry" />
        </mxCell>
        <mxCell id="_jWvN4Qq9l6T_-HFxN46-1" value="Game Tebak Angka" style="text;html=1;strokeColor=none;fillColor=none;align=center;verticalAlign=middle;whiteSpace=wrap;rounded=0;" parent="1" vertex="1">
          <mxGeometry x="370" y="70" width="105" height="30" as="geometry" />
        </mxCell>
        <mxCell id="_jWvN4Qq9l6T_-HFxN46-2" value="Random Angka" style="ellipse;whiteSpace=wrap;html=1;" parent="1" vertex="1">
          <mxGeometry x="367.5" y="160" width="165" height="80" as="geometry" />
        </mxCell>
        <mxCell id="_jWvN4Qq9l6T_-HFxN46-3" value="Tebak Angka" style="ellipse;whiteSpace=wrap;html=1;" parent="1" vertex="1">
          <mxGeometry x="360" y="370" width="165" height="80" as="geometry" />
        </mxCell>
        <mxCell id="_jWvN4Qq9l6T_-HFxN46-4" value="" style="endArrow=none;html=1;rounded=0;" parent="1" source="4f4kss6W1X4vwT7f5vAt-11" edge="1">
          <mxGeometry width="50" height="50" relative="1" as="geometry">
            <mxPoint x="400" y="350" as="sourcePoint" />
            <mxPoint x="370" y="210" as="targetPoint" />
          </mxGeometry>
        </mxCell>
        <mxCell id="_jWvN4Qq9l6T_-HFxN46-5" value="" style="endArrow=none;html=1;rounded=0;exitX=1;exitY=0.5;exitDx=0;exitDy=0;" parent="1" source="_jWvN4Qq9l6T_-HFxN46-3" edge="1">
          <mxGeometry width="50" height="50" relative="1" as="geometry">
            <mxPoint x="400" y="350" as="sourcePoint" />
            <mxPoint x="740" y="350" as="targetPoint" />
          </mxGeometry>
        </mxCell>
      </root>
    </mxGraphModel>
  </diagram>
</mxfile>
